<svg xmlns:mydata="http://www.w3.org/2000/svg" mydata:contrastcolor="DF4661" mydata:template="Contrast" mydata:presentation="2.5" mydata:layouttype="undefined" mydata:specialfontid="undefined" mydata:id1="208" mydata:id2="094" mydata:companyname="Laravel SetUp" mydata:companytagline="2 comandos hacen la diferencia" version="1.1" xmlns="http://www.w3.org/2000/svg" xmlns:xlink="http://www.w3.org/1999/xlink" viewBox="0 45 550 380"><g fill="#101820" fill-rule="none" stroke="none" stroke-width="1" stroke-linecap="butt" stroke-linejoin="miter" stroke-miterlimit="10" stroke-dasharray="" stroke-dashoffset="0" font-family="none" font-weight="none" font-size="none" text-anchor="none" style="mix-blend-mode: normal"><g data-paper-data="{&quot;isGlobalGroup&quot;:true,&quot;bounds&quot;:{&quot;x&quot;:145.99999999999997,&quot;y&quot;:105.99999999999997,&quot;width&quot;:258,&quot;height&quot;:258}}"><g data-paper-data="{&quot;fillRule&quot;:&quot;nonzero&quot;,&quot;fillRuleOriginal&quot;:&quot;nonzero&quot;,&quot;isIcon&quot;:true,&quot;iconStyle&quot;:&quot;standalone&quot;,&quot;selectedEffects&quot;:{&quot;container&quot;:&quot;circle_simple_filled&quot;,&quot;transformation&quot;:&quot;&quot;,&quot;pattern&quot;:&quot;&quot;},&quot;bounds&quot;:{&quot;x&quot;:199.27842301298128,&quot;y&quot;:159.27842301298128,&quot;width&quot;:151.44265580740645,&quot;height&quot;:151.4426558074065},&quot;widthRatioIconToContainer&quot;:0.8760696657378811,&quot;heightRatioIconToContainer&quot;:0.8281961569315444,&quot;relativeBoundsIconToContainer&quot;:{&quot;top&quot;:0.026583653968502874,&quot;left&quot;:-0.005276951988400971},&quot;iconType&quot;:&quot;initial&quot;,&quot;initialText&quot;:&quot;LS&quot;,&quot;rawInitialId&quot;:1087,&quot;blockLetter&quot;:&quot;O&quot;,&quot;monogramSpecial&quot;:&quot;emblem&quot;,&quot;suitableAsStandaloneIcon&quot;:true}" fill-rule="nonzero"><path d="M199.27842,234.99975c0,-41.81973 33.9016,-75.72133 75.72133,-75.72133c41.81973,0 75.72133,33.9016 75.72133,75.72133c0,41.81973 -33.9016,75.72133 -75.72133,75.72133c-41.81973,0 -75.72133,-33.9016 -75.72133,-75.72133zM273.2042,301.73777v-67.44368h-12.01669v53.62449c-23.88317,-6.30876 -41.30738,-27.93882 -41.30738,-53.62449c0,-17.57441 7.96106,-33.04591 20.57859,-43.26009v-14.72045c-19.52713,11.86648 -32.59528,33.34632 -32.59528,57.98054c0,32.29486 22.83171,59.48262 53.32407,65.9416c3.75522,0.90125 7.81085,1.35188 12.01669,1.50208zM280.68571,255.27918v46.45859c3.76691,-0.13952 7.53383,-0.55807 11.16122,-1.39516c24.6942,-5.30158 43.94731,-25.11275 48.55131,-49.94647l0.13952,-0.27903l-48.69083,-28.04257v-32.9256c16.88135,4.46449 30.41433,17.29989 35.71591,33.76269h11.71928c-5.99916,-22.74099 -24.41517,-40.31991 -47.43519,-45.20294c-3.6274,-0.83709 -7.39431,-1.25563 -11.16122,-1.39516v52.17871l46.87713,27.06596c-5.58061,16.32328 -18.97408,28.87966 -35.71591,33.34414v-33.62318z" data-paper-data="{&quot;isPathIcon&quot;:true}"></path></g><g data-paper-data="{&quot;isContainerElementsWrapper&quot;:true}" fill-rule="evenodd"><path d="M146,234.99975c0,-71.24461 57.75514,-128.99975 128.99975,-128.99975c71.2448,0 129.00025,57.75514 129.00025,128.99975c0,71.2448 -57.75545,129.00025 -129.00025,129.00025c-71.24461,0 -128.99975,-57.75545 -128.99975,-129.00025zM274.42108,115.75221l0.90168,0.05998c0.38648,0.02571 0.50674,0.163 0.47814,0.59242l-1.86633,28.08135l15.62938,1.03881c0.38648,0.02569 0.50674,0.16306 0.48103,0.5495l-0.05131,0.77289c-0.02859,0.42938 -0.16599,0.54963 -0.55237,0.52395l-17.04637,-1.13294c-0.42942,-0.02853 -0.54968,-0.16591 -0.52108,-0.59529l1.95192,-29.36958c0.02859,-0.42932 0.16589,-0.54958 0.59531,-0.52108zM258.99475,116.87637l-17.18765,3.58371c-0.42135,0.08778 -0.52138,0.24051 -0.4335,0.66176l6.00799,28.81471c0.08778,0.42127 0.24051,0.5213 0.66176,0.43346l17.77747,-3.70666c0.3792,-0.07905 0.52128,-0.24056 0.4335,-0.66183l-0.15812,-0.75825c-0.07911,-0.3792 -0.27389,-0.47037 -0.6531,-0.39136l-16.38729,3.4168l-2.59106,-12.42733l13.98603,-2.91617c0.3791,-0.07911 0.47914,-0.23175 0.39136,-0.6531l-0.15812,-0.75821c-0.07911,-0.3792 -0.23185,-0.47924 -0.61095,-0.40013l-13.98603,2.91607l-2.51215,-12.04816l15.79756,-3.29388c0.42125,-0.08778 0.52128,-0.24051 0.44227,-0.61972l-0.15812,-0.75821c-0.08788,-0.42135 -0.24061,-0.52138 -0.66186,-0.4335zM228.07465,125.49366l0.71676,-0.39325c0.37731,-0.20694 0.51849,-0.03906 0.55027,0.28714l4.12502,31.40785c0.07313,0.40165 -0.0534,0.61832 -0.39295,0.8046l-0.71686,0.39325c-0.37731,0.20698 -0.59033,0.17658 -0.8691,-0.06315l-24.2926,-20.39307c-0.25805,-0.20196 -0.28615,-0.43201 0.0534,-0.61832l0.71686,-0.39325c0.56592,-0.31046 0.75821,-0.31783 1.05771,-0.04035l20.27678,17.09891c0.85695,0.75693 1.75903,1.68547 2.21674,2.07245l0.11318,-0.06209c-0.0804,-0.59396 -0.39584,-1.79523 -0.59441,-2.96244l-3.56319,-26.26788c-0.07313,-0.40172 0.07413,-0.58066 0.60238,-0.8704zM314.91286,131.11527c-2.989,5.96305 1.83823,9.39323 6.3586,12.38054c3.94249,2.60176 7.65383,5.1841 5.3792,9.7237c-2.04448,4.07795 -5.89331,4.65163 -11.43392,1.87511c-4.30815,-2.15952 -6.13343,-5.33665 -5.84051,-10.05131c0,-0.48113 -0.09565,-0.57747 -0.50016,-0.63556l-0.86581,-0.09704c-0.4613,-0.03896 -0.57688,0.09565 -0.61573,0.55745c-0.44835,5.50362 1.58816,9.2198 6.97433,11.91919c6.69337,3.35497 11.58337,2.24343 14.09014,-2.75783c2.96907,-5.92458 -1.51243,-9.18119 -5.93516,-12.07215c-4.11585,-2.64048 -8.02048,-5.51162 -5.74486,-10.05121c1.85119,-3.69331 5.8156,-4.4016 10.77833,-1.91426c4.30914,2.15955 5.9232,4.99004 5.93815,9.28164c0.01893,0.44267 0.1345,0.50046 0.50016,0.53932l0.94253,0.03945c0.36565,0.03876 0.57787,-0.09575 0.55894,-0.53832c0.04284,-5.0806 -1.93588,-8.43107 -7.0909,-11.01486c-6.07863,-3.04639 -11.141,-1.87729 -13.49334,2.81614zM350.59156,142.78044l12.69428,12.12908c0.31086,0.29728 0.31484,0.47981 0.01793,0.79094l-0.53503,0.56004c-0.26801,0.28002 -0.45034,0.28418 -0.7612,-0.0131l-11.66806,-11.14799l-8.50171,8.89847l10.32899,9.86971c0.28097,0.26755 0.28495,0.45007 0.01694,0.73009l-0.53503,0.56005c-0.29691,0.31112 -0.47924,0.3153 -0.7602,0.04774l-10.32899,-9.8697l-8.76973,9.17851l12.10246,11.56422c0.27997,0.26752 0.31584,0.47973 0.04782,0.7598l-0.53503,0.56004c-0.29691,0.31115 -0.51112,0.28555 -0.79109,0.01803l-13.12968,-12.54524c-0.31086,-0.29728 -0.31484,-0.4798 -0.01793,-0.79094l20.33417,-21.28172c0.29691,-0.31115 0.47924,-0.31524 0.79109,-0.01803zM222.26483,162.74082l-29.35585,-12.82665c-0.36371,-0.18541 -0.60761,-0.12645 -0.8836,0.14527l-0.61329,0.60381c-0.27598,0.27172 -0.30808,0.48448 -0.15901,0.88122l12.36753,29.55227c0.11934,0.30518 0.33162,0.39813 0.63827,0.09625l0.5213,-0.51321c0.45998,-0.45293 0.55296,-0.66515 0.3732,-1.0317l-3.97362,-9.43378l10.1807,-10.02324l9.4014,4.08998c0.33297,0.21561 0.54669,0.12598 1.0067,-0.32688l0.55197,-0.54343c0.33726,-0.3321 0.24769,-0.5458 -0.0557,-0.66988zM194.71234,152.78861l15.07211,6.59897l-9.35283,9.20815l-6.36325,-15.17313c-0.38916,-0.82463 -0.90192,-1.40679 -1.05288,-1.56011l0.092,-0.09058c0.18161,0.12314 0.78638,0.61472 1.60484,1.01669zM195.27182,234.99975c0,-44.03255 35.69538,-79.72793 79.72793,-79.72793c44.03295,0 79.72758,35.69538 79.72758,79.72793c0,44.03295 -35.69464,79.72758 -79.72758,79.72758c-44.03255,0 -79.72793,-35.69464 -79.72793,-79.72758zM381.85849,182.09794l-10.73748,-17.64567c-0.22417,-0.36762 -0.40152,-0.4108 -0.76917,-0.1871l-0.66157,0.40265c-0.33078,0.20132 -0.37362,0.37872 -0.15045,0.74632l4.85414,7.97734l-24.04152,14.62946c-0.36765,0.22368 -0.41149,0.40112 -0.18731,0.76867l0.46927,0.77206c0.20126,0.33088 0.37861,0.37402 0.74625,0.15035l24.04252,-14.62956l4.85414,7.97734c0.22318,0.36765 0.40053,0.41079 0.7323,0.20943l0.66157,-0.40262c0.36765,-0.22368 0.41049,-0.40112 0.18731,-0.76867zM165.56779,187.68458l5.8966,-10.85176c2.58877,-4.76427 6.93099,-6.17587 11.73302,-3.56657c4.3483,2.3627 5.56017,6.35152 3.68155,10.62012c1.38571,-1.10812 2.78299,-1.42635 4.78525,-1.41579l10.6952,0.3262c0.36741,-0.04523 0.55318,0.15363 0.34773,0.53184l-0.39036,0.71836c-0.32873,0.60497 -0.50708,0.75293 -0.92957,0.71925l-9.92585,-0.3c-3.17354,-0.1082 -5.0508,0.7328 -6.77662,3.90891l-3.39002,6.23884l11.30555,6.14319c0.37811,0.20544 0.42991,0.3805 0.245,0.72075l-0.43146,0.79408c-0.20545,0.37811 -0.38052,0.42992 -0.75864,0.22447l-25.8629,-14.05318c-0.37811,-0.20544 -0.42992,-0.3805 -0.22447,-0.75871zM184.78466,184.31558c2.05456,-3.78118 1.20768,-7.17988 -2.57343,-9.23442c-3.78118,-2.05454 -7.12807,-1.0326 -9.22365,2.82421l-5.11587,9.41495l11.79708,6.41021zM387.03643,196.27317l-19.03694,4.93514c-5.37323,1.39317 -8.06333,5.24699 -6.47617,11.37035c1.5762,6.08172 5.80065,8.14293 11.17388,6.74986l19.03694,-4.93524c0.41647,-0.108 0.57389,-0.01544 0.67153,0.35948l0.23713,0.91643c0.09764,0.37492 0.00498,0.53224 -0.41149,0.64024l-19.03694,4.93524c-6.45624,1.67394 -11.56145,-0.8702 -13.46246,-8.20162c-1.91097,-7.37307 1.31416,-12.07695 7.7714,-13.75089l19.03594,-4.93514c0.41746,-0.108 0.57488,-0.01544 0.68249,0.40112l0.22716,0.87468c0.09664,0.37492 0.00399,0.53234 -0.41248,0.64034zM190.37902,206.01004l-31.40657,6.31815c-0.40431,0.05659 -0.5703,0.2447 -0.64074,0.6255l-0.15642,0.84639c-0.07034,0.3808 0.02531,0.57359 0.37492,0.81321l27.07442,17.12498c0.27276,0.18173 0.49997,0.1362 0.57817,-0.28694l0.13293,-0.71935c0.1173,-0.63476 0.07177,-0.86203 -0.28562,-1.0593l-8.66373,-5.45204l2.59615,-14.049l10.04782,-2.038c0.39649,-0.01425 0.52022,-0.21013 0.63751,-0.84489l0.14075,-0.7617c0.08602,-0.46549 -0.10993,-0.58923 -0.4296,-0.517zM162.09786,213.64972l16.13263,-3.2329l-2.38492,12.9064l-13.9119,-8.78487c-0.79159,-0.45263 -1.54541,-0.63566 -1.75703,-0.67482l0.02341,-0.12693c0.04105,-0.0006 0.10163,0.0009 0.17884,0.00279c0.33566,0.00817 0.98647,0.02401 1.71897,-0.08967zM393.43588,244.21065l0.76319,-11.55049c0.02889,-0.42942 -0.09166,-0.56671 -0.52108,-0.59511l-29.36991,-1.94205c-0.42942,-0.0284 -0.56691,0.09196 -0.59581,0.52128l-0.05978,0.90178c-0.02491,0.38638 0.09565,0.52377 0.52407,0.55217l11.29344,0.74665l-0.67053,10.13361c-0.38558,5.83971 2.85151,9.71943 8.64817,10.10272c5.88235,0.38897 9.60465,-3.07379 9.98824,-8.87055zM376.65763,242.92887l0.65858,-9.96184l14.94301,0.98796l-0.65858,9.96184c-0.30986,4.68038 -3.29388,7.41561 -8.01749,7.10336c-4.67978,-0.30946 -7.23537,-3.41105 -6.92551,-8.09132zM157.08421,252.45222l0.07463,0.90059c0.03557,0.42882 0.17486,0.54689 0.60378,0.51132l29.33378,-2.43065c0.42885,-0.03557 0.54685,-0.17486 0.51132,-0.60378l-1.4108,-17.02554c-0.03198,-0.38598 -0.1713,-0.50404 -0.60016,-0.46848l-0.77194,0.06396c-0.38598,0.03198 -0.50395,0.17127 -0.47196,0.55725l1.2935,15.61045l-28.04724,2.32405c-0.42882,0.03557 -0.54689,0.17486 -0.51491,0.56084zM201.96379,307.35248c-0.031,-0.07672 -0.02544,-0.1076 0.0458,-0.14447c0.90372,-0.37163 1.70069,-0.25705 2.50715,0.52706c0.80643,0.78411 0.78013,1.87908 0.10814,2.56954c-0.90772,0.93456 -1.83996,0.55894 -3.03712,0.05579c-0.74613,-0.3248 -1.48013,-0.63765 -2.06367,-0.03686l-0.29472,0.30289l2.51638,2.446c0.06064,0.05878 0.06114,0.09465 0.0081,0.14945l-0.1061,0.1096c-0.05894,0.06078 -0.09481,0.06078 -0.15545,0.00199l-2.72861,-2.65224c-0.05457,-0.05281 -0.05525,-0.10063 -0.0022,-0.15543l0.42439,-0.43639c0.78394,-0.80703 1.668,-0.45433 2.5765,-0.06675c0.03932,0.01694 0.07854,0.03388 0.11767,0.05081c0.8708,0.37661 1.69175,0.7323 2.44198,-0.03886c0.54817,-0.56392 0.56579,-1.43173 -0.06482,-2.04448c-0.66093,-0.64263 -1.30211,-0.73529 -2.07513,-0.42543c-0.07142,0.02491 -0.10745,0.01395 -0.13828,-0.05181zM351.22522,310.54971l-5.73888,-2.58748c-0.07074,-0.03786 -0.11856,-0.0269 -0.17336,0.0259l-0.12255,0.11757c-0.0548,0.05281 -0.06177,0.09465 -0.03288,0.17237l2.36231,5.83552c0.02292,0.06078 0.06377,0.07871 0.12454,0.02092l0.10362,-0.10063c0.09166,-0.08768 0.11059,-0.12853 0.07572,-0.20126l-0.75921,-1.86314l2.02355,-1.94584l1.83823,0.82496c0.06476,0.04284 0.1076,0.0259 0.19827,-0.06177l0.1096,-0.10561c0.06775,-0.06476 0.05081,-0.10661 -0.00897,-0.13152zM345.83406,308.53114l2.94616,1.3311l-1.85816,1.78742l-1.21553,-2.99597c-0.07472,-0.1624 -0.17436,-0.27798 -0.20325,-0.30886l0.01793,-0.01793c0.03487,0.02491 0.15344,0.12255 0.31285,0.20425zM345.88488,315.57223l-3.82891,-4.33604c-0.05579,-0.06377 -0.0538,-0.09864 0.00996,-0.15543l0.13351,-0.11757c0.05679,-0.04982 0.09266,-0.04782 0.14845,0.01594l3.82891,4.33505c0.05579,0.06377 0.0538,0.09963 -0.00399,0.14945l-0.13251,0.11757c-0.06377,0.05679 -0.09963,0.0538 -0.15543,-0.00897zM207.91484,313.66225l-1.30968,1.60509c-0.81779,1.00231 -0.69773,2.12618 0.44237,3.05675c1.04197,0.84987 1.86115,0.80902 2.69329,0.24311c0.06775,-0.04284 0.07602,-0.07971 0.03308,-0.14746l-0.08708,-0.14746c-0.04294,-0.06775 -0.07981,-0.07572 -0.15413,-0.03886c-0.72573,0.4892 -1.37723,0.52507 -2.2553,-0.1913c-0.9501,-0.77515 -1.04426,-1.70273 -0.37612,-2.52272l1.32034,-1.61805c0.67342,-0.82596 1.57112,-0.9226 2.54095,-0.13152c0.85186,0.69444 0.98717,1.31815 0.65459,2.12717c-0.0284,0.07472 -0.00757,0.10262 0.06865,0.14347l0.15005,0.05679c0.0803,0.02192 0.11607,0.01793 0.14985,-0.06377c0.38658,-0.92858 0.22238,-1.71668 -0.79328,-2.54563c-1.15983,-0.94652 -2.26516,-0.82197 -3.07757,0.17436zM338.36555,316.68712l1.30619,1.60908c0.815,1.0043 1.93986,1.11589 3.08266,0.18831c1.04316,-0.84688 1.1697,-1.6569 0.78611,-2.58748c-0.02889,-0.07472 -0.06277,-0.09067 -0.13849,-0.06177l-0.16141,0.0548c-0.07572,0.02889 -0.09067,0.06277 -0.06875,0.14347c0.32979,0.81002 0.23314,1.45465 -0.64662,2.16902c-0.95249,0.77216 -1.88008,0.67551 -2.54663,-0.14447l-1.31616,-1.62203c-0.67153,-0.82795 -0.58385,-1.72665 0.38857,-2.51475c0.85386,-0.69245 1.49151,-0.69843 2.21585,-0.20823c0.06775,0.04284 0.09963,0.0279 0.15443,-0.03786l0.08568,-0.1355c0.03786,-0.07472 0.04185,-0.1096 -0.03089,-0.15941c-0.83094,-0.56791 -1.63698,-0.56691 -2.65423,0.25805c-1.16272,0.94353 -1.26534,2.05145 -0.45632,3.04878zM335.39349,316.47391l0.13749,-0.09864c0.06177,-0.04384 0.09764,-0.03786 0.14646,0.03089l3.35465,4.71166c0.04882,0.06875 0.04284,0.10461 -0.01893,0.14845l-0.14447,0.10362c-0.04882,0.03388 -0.07373,0.04185 -0.1355,0.01295l-4.92786,-1.74458c-0.45732,-0.16141 -0.90866,-0.40152 -1.1956,-0.49817l-0.01295,0.00996c0.18631,0.26204 0.54101,0.67252 0.84987,1.10693l2.28559,3.21019c0.04882,0.06875 0.04284,0.10461 -0.01893,0.14845l-0.13749,0.09764c-0.06875,0.04982 -0.10461,0.04384 -0.15344,-0.02491l-3.35465,-4.71266c-0.04882,-0.06875 -0.04284,-0.10362 0.0259,-0.15344l0.13749,-0.09764c0.0548,-0.03886 0.10262,-0.03089 0.13052,-0.02092l4.79535,1.70473c0.51411,0.18333 1.00231,0.41746 1.33509,0.53403l0.01295,-0.00996c-0.21521,-0.30289 -0.59182,-0.73031 -0.93058,-1.20556l-2.21186,-3.10657c-0.04384,-0.06277 -0.03786,-0.09764 0.03089,-0.14646zM211.52555,319.21283l1.20616,-1.67484c0.75632,-1.04914 1.86583,-1.22948 3.07339,-0.35968c1.19391,0.85984 1.37414,1.96975 0.61793,3.01889l-1.20616,1.67484c-0.75632,1.04914 -1.86583,1.22948 -3.05974,0.36964c-1.20756,-0.8698 -1.38779,-1.97971 -0.63158,-3.02885zM214.90123,321.64488l1.20616,-1.67484c0.63267,-0.87777 0.47326,-1.78543 -0.51481,-2.49681c-1.00171,-0.72135 -1.91256,-0.58584 -2.54523,0.29292l-1.20616,1.67384c-0.63267,0.87777 -0.47326,1.78543 0.52855,2.50677c0.98796,0.71138 1.89881,0.57588 2.53148,-0.30189zM223.58706,322.42202l-0.1364,-0.08469c-0.07184,-0.04483 -0.10671,-0.03686 -0.18283,0.00598l-4.01921,2.19891l0.1903,-4.5931c-0.0001,-0.07971 -0.00827,-0.11458 -0.08718,-0.16439l-0.11488,-0.07074c-0.07184,-0.04483 -0.10671,-0.03686 -0.15144,0.03487l-3.05725,4.90993c-0.04474,0.07174 -0.03657,0.10661 0.03517,0.15144l0.12922,0.0807c0.07184,0.04483 0.10671,0.03686 0.15144,-0.03487l2.05155,-3.29487c0.24141,-0.38857 0.46838,-0.78511 0.70341,-1.22649l0.01435,0.00897c-0.0557,0.47326 -0.08997,0.88076 -0.10442,1.32014l-0.13102,3.10557c-0.01146,0.0827 0.01275,0.1076 0.07732,0.14845l0.09336,0.05779c0.05739,0.03587 0.09505,0.03886 0.15951,0l2.6902,-1.47258c0.40391,-0.2172 0.76568,-0.43042 1.17757,-0.69146l0.01435,0.00897c-0.2996,0.40053 -0.56422,0.79408 -0.79667,1.16671l-2.05155,3.29587c-0.04474,0.07174 -0.03657,0.10661 0.028,0.14646l0.14357,0.08967c0.06466,0.03985 0.09953,0.03188 0.14427,-0.03985l3.05725,-4.90993c0.04474,-0.07174 0.03657,-0.10661 -0.028,-0.14746zM330.36101,319.97502l-2.92125,1.83525c-0.07174,0.04483 -0.07971,0.07971 -0.03487,0.15144l3.07767,4.89797c0.04483,0.07174 0.07971,0.07971 0.15144,0.03388l3.02188,-1.89801c0.06377,-0.04085 0.07871,-0.07971 0.03388,-0.15144l-0.0807,-0.12952c-0.04085,-0.06377 -0.0827,-0.06775 -0.14746,-0.0269l-2.78475,1.74956l-1.32712,-2.11223l2.37725,-1.4935c0.06377,-0.03985 0.07174,-0.07572 0.0269,-0.14646l-0.0807,-0.12952c-0.04085,-0.06377 -0.07572,-0.07174 -0.13949,-0.03188l-2.37725,1.4935l-1.28726,-2.04746l2.68512,-1.68679c0.07174,-0.04483 0.07971,-0.0807 0.03886,-0.14447l-0.0807,-0.12952c-0.04483,-0.07074 -0.07971,-0.07871 -0.15144,-0.03388zM322.10439,324.81621l2.12618,-1.17169c0.93257,-0.51411 1.80137,-0.28794 2.31946,0.6526c0.46927,0.85186 0.24709,1.64096 -0.5151,2.14809c0.34672,-0.03686 0.61175,0.05878 0.94153,0.273l1.73561,1.18663c0.06576,0.03089 0.07572,0.08369 0.001,0.12454l-0.14048,0.07771c-0.11856,0.06576 -0.1634,0.07074 -0.23015,0.02092l-1.61107,-1.10095c-0.51411,-0.35469 -0.91364,-0.41447 -1.53535,-0.07174l-1.2225,0.67352l1.22051,2.21485c0.04085,0.07373 0.03089,0.1086 -0.03587,0.14546l-0.15543,0.08568c-0.07373,0.04085 -0.1086,0.03089 -0.14945,-0.04384l-2.79173,-5.06536c-0.04085,-0.07373 -0.03089,-0.1086 0.04284,-0.14945zM325.64237,326.29476c0.74028,-0.4085 0.96047,-1.06109 0.55197,-1.80137c-0.4075,-0.74028 -1.07006,-0.92559 -1.82528,-0.50913l-1.84421,1.01626l1.27331,2.3105zM227.39644,324.58605l-0.68727,6.25797c-0.00558,0.06476 -0.04045,0.09366 -0.12245,0.04982l-0.13431,-0.07174c-0.11179,-0.05978 -0.14118,-0.09465 -0.12026,-0.16938l0.2168,-2.00363l-2.47629,-1.32313l-1.53694,1.29822c-0.05829,0.0548 -0.10352,0.04982 -0.21541,-0.00996l-0.12673,-0.06775c-0.07463,-0.03985 -0.06964,-0.08469 -0.01933,-0.12454l4.81936,-4.05109c0.06576,-0.05081 0.1075,-0.05679 0.17466,-0.02092l0.14915,0.07971c0.06715,0.03587 0.09246,0.07771 0.07901,0.15642zM226.60745,328.30636l0.35539,-3.21317c0.0275,-0.17735 0.08429,-0.31982 0.09674,-0.36067l-0.02242,-0.01196c-0.01993,0.03686 -0.09904,0.16738 -0.23095,0.28894l-2.4737,2.08234zM320.25122,325.76173l-3.11255,1.48852c-0.07572,0.03686 -0.08768,0.07074 -0.05181,0.14746l2.49581,5.2178c0.03587,0.07572 0.06974,0.08768 0.14646,0.05181l3.21915,-1.53933c0.06875,-0.03288 0.08867,-0.07074 0.05181,-0.14746l-0.06576,-0.1365c-0.03288,-0.06875 -0.07373,-0.07771 -0.14248,-0.04483l-2.96808,1.41977l-1.07604,-2.25072l2.53268,-1.21154c0.06875,-0.03288 0.0807,-0.06675 0.04384,-0.14248l-0.06476,-0.13749c-0.03288,-0.06875 -0.06675,-0.0807 -0.1355,-0.04782l-2.53268,1.21154l-1.04416,-2.18197l2.86147,-1.36797c0.07572,-0.03686 0.08768,-0.07074 0.0548,-0.13949l-0.06576,-0.13749c-0.03587,-0.07572 -0.06974,-0.08768 -0.14646,-0.05181zM234.76732,328.09813l-0.15373,-0.07074c-0.07692,-0.03487 -0.11059,-0.02192 -0.14218,0.04683l-1.58556,3.46824c-0.24251,0.53105 -0.42424,1.07106 -0.57897,1.40981l-0.01534,-0.00697c-0.06506,-0.34672 -0.10661,-0.88574 -0.20485,-1.42376l-0.92021,-5.00458c-0.00478,-0.02989 -0.02152,-0.07472 -0.08309,-0.10262l-0.15373,-0.07074c-0.07692,-0.03487 -0.11059,-0.02292 -0.14576,0.0548l-2.40465,5.26064c-0.03507,0.07672 -0.02262,0.11059 0.0543,0.14546l0.15383,0.06974c0.06925,0.03188 0.10282,0.01993 0.13799,-0.05779l1.63827,-3.58381c0.22148,-0.48422 0.40033,-0.99733 0.53393,-1.29025l0.01534,0.00697c0.05958,0.29691 0.07742,0.80703 0.16599,1.28527l0.9514,5.13909c0.00608,0.06775 0.02571,0.08668 0.07951,0.11059l0.16151,0.07472c0.06925,0.03089 0.10282,0.01893 0.13799,-0.05779l2.40465,-5.26064c0.03517,-0.07771 0.02262,-0.11059 -0.04663,-0.14248zM312.1859,329.3565l3.18827,-1.32014c0.07771,-0.03188 0.11159,-0.01793 0.14347,0.05978l0.05779,0.14048c0.02989,0.07074 0.01594,0.10362 -0.06277,0.1355l-2.92922,1.21353l0.95648,2.31249l2.54762,-1.05412c0.07771,-0.03288 0.11159,-0.01893 0.14347,0.05978l0.05779,0.14048c0.02989,0.06974 0.01594,0.10362 -0.06277,0.1355l-2.54663,1.05412l1.01825,2.46094c0.03288,0.07871 0.01893,0.11159 -0.05181,0.14048l-0.1634,0.06875c-0.07871,0.03188 -0.11159,0.01793 -0.14347,-0.05978l-2.21286,-5.34433c-0.03188,-0.07871 -0.01793,-0.11159 0.05978,-0.14347zM236.88134,328.98287l1.61137,0.61673c1.46909,0.56193 1.98539,1.67384 1.49301,2.9611l-0.54968,1.43771c-0.49239,1.28726 -1.61894,1.77048 -3.08804,1.20855l-1.61127,-0.61573c-0.07901,-0.02989 -0.09366,-0.06277 -0.06337,-0.14248l2.0661,-5.40212c0.03019,-0.07871 0.06297,-0.09366 0.14188,-0.06377zM239.07267,333.85893l0.54978,-1.43771c0.41985,-1.09696 -0.01176,-2.00462 -1.25179,-2.47888l-1.3585,-0.52009l-1.88486,4.92886l1.3585,0.51909c1.23217,0.47127 2.16702,0.08668 2.58688,-1.01128zM309.75086,330.39866l1.99067,5.43101c0.02889,0.07871 0.06078,0.09465 0.14048,0.06476l0.16639,-0.06078c0.07174,-0.0259 0.08668,-0.05878 0.05779,-0.13849l-1.98968,-5.43101c-0.02989,-0.07871 -0.06177,-0.09366 -0.13351,-0.06775l-0.16639,0.06078c-0.07971,0.02889 -0.09465,0.06177 -0.06576,0.14148zM241.79754,332.9154l-0.61952,1.96776c-0.38847,1.23446 0.13112,2.23179 1.55069,2.67814c1.40353,0.44138 2.40047,-0.07771 2.78894,-1.31217l0.61942,-1.96776c0.38847,-1.23446 -0.13102,-2.23079 -1.53455,-2.67316c-1.41968,-0.44636 -2.41651,0.07273 -2.80498,1.30719zM303.91235,332.21099l1.64295,-0.52507c1.49849,-0.47824 2.59644,0.06775 3.0159,1.38092l0.46828,1.46561c0.41946,1.31317 -0.15842,2.39419 -1.6569,2.87243l-1.64395,0.52507c-0.07971,0.0259 -0.11159,0.00996 -0.13749,-0.07074l-1.76052,-5.50972c-0.02491,-0.0807 -0.00897,-0.11259 0.07174,-0.13849zM245.76604,334.1648l-0.61952,1.96776c-0.3249,1.0322 -1.14708,1.44767 -2.3086,1.08202c-1.17767,-0.37064 -1.61386,-1.18165 -1.28886,-2.21385l0.61952,-1.96875c0.325,-1.0322 1.14708,-1.44767 2.32474,-1.07704c1.16153,0.36565 1.59772,1.17667 1.27272,2.20987zM308.66884,334.65101l-0.46828,-1.4666c-0.35768,-1.11888 -1.26136,-1.55827 -2.5267,-1.15475l-1.3849,0.44237l1.60509,5.0265l1.3859,-0.44237c1.25638,-0.40152 1.74657,-1.28527 1.38889,-2.40515zM249.72975,336.47729c-0.99474,-0.3796 -2.06749,-0.82995 -1.74986,-2.10226c0.24998,-1.00032 1.17079,-1.44169 2.46702,-1.11789c1.09945,0.27499 1.62253,0.83194 1.83196,1.80834c0.02252,0.08469 -0.01235,0.11956 -0.08409,0.12753l-0.18253,0.03288c-0.07184,0.00797 -0.09645,0.00199 -0.11896,-0.0827c-0.18681,-0.82197 -0.61763,-1.29523 -1.53655,-1.52539c-1.05831,-0.26403 -1.78842,0.04185 -1.98509,0.82895c-0.24181,0.96844 0.62988,1.35202 1.53236,1.68181c0.97222,0.36466 1.97115,0.79707 1.65551,2.06042c-0.26642,1.06707 -1.15644,1.48952 -2.58399,1.13283c-1.14857,-0.28694 -1.69835,-0.91264 -1.8483,-1.98669c-0.01225,-0.09067 0.00408,-0.12155 0.09435,-0.13351l0.17027,-0.01893c0.07991,-0.00598 0.10252,0.00897 0.12305,0.10063c0.14576,0.91663 0.63197,1.44767 1.55079,1.67783c1.18145,0.29491 1.89513,0.01993 2.11233,-0.84987c0.24191,-0.96744 -0.58066,-1.3042 -1.44827,-1.63399zM301.13656,339.09167l-3.57185,-5.18392c-0.04185,-0.06875 -0.08867,-0.08469 -0.1624,-0.06775l-0.16539,0.03686c-0.07373,0.01694 -0.10163,0.04982 -0.11757,0.13152l-0.99833,6.21513c-0.01096,0.06377 0.01494,0.10063 0.09664,0.0827l0.14048,-0.03188c0.12355,-0.0279 0.16141,-0.0538 0.16938,-0.13351l0.31384,-1.98669l2.73892,-0.61872l1.14578,1.6569c0.03288,0.07074 0.07871,0.07771 0.20226,0.04982l0.14845,-0.03288c0.09067,-0.02092 0.09764,-0.06576 0.05978,-0.11757zM297.5677,334.57429l1.83325,2.6632l-2.51674,0.56891l0.51012,-3.19325c0.02092,-0.17834 -0.00399,-0.32779 -0.01395,-0.36964l0.02491,-0.00498c0.01793,0.03886 0.06775,0.18333 0.1624,0.33576zM261.37021,335.49989l-0.17545,-0.0279c-0.07522,-0.01196 -0.10422,0.00996 -0.11727,0.09266l-0.41298,2.64028l-3.53399,-0.55296l0.41298,-2.63929c0.01305,-0.08369 -0.00807,-0.11259 -0.08329,-0.12454l-0.17545,-0.0279c-0.08349,-0.01295 -0.11249,0.00797 -0.12554,0.09166l-0.89401,5.71497c-0.01305,0.08369 0.00807,0.11259 0.09166,0.12554l0.17545,0.0279c0.07512,0.01096 0.10412,-0.00996 0.11717,-0.09366l0.42484,-2.71501l3.53399,0.55296l-0.42474,2.71501c-0.01305,0.08369 0.00807,0.11259 0.08329,0.12454l0.17535,0.0269c0.08359,0.01395 0.11259,-0.00797 0.12564,-0.09166l0.89401,-5.71397c0.01305,-0.08369 -0.00807,-0.11259 -0.09166,-0.12554zM290.48327,335.23088l0.17496,-0.02989c0.07502,-0.01295 0.10432,0.00797 0.11866,0.09166l0.93436,5.45094l3.03383,-0.52009c0.07502,-0.01295 0.10432,0.00697 0.11717,0.0827l0.02571,0.14945c0.01435,0.08369 -0.00638,0.11259 -0.0814,0.12554l-3.30892,0.56791c-0.08329,0.01395 -0.11259,-0.00697 -0.12693,-0.09067l-0.9773,-5.70102c-0.01425,-0.0827 0.00648,-0.11259 0.08987,-0.12653zM285.36281,335.88846l-0.16858,0.01395c-0.08419,0.00697 -0.1074,0.03487 -0.10123,0.11059l0.31036,3.80101c0.04743,0.58186 0.15254,1.1408 0.18283,1.51243l-0.01684,0.001c-0.22567,-0.27001 -0.52547,-0.72035 -0.87378,-1.1418l-3.24705,-3.91758c-0.01893,-0.02391 -0.0554,-0.0548 -0.12285,-0.04982l-0.16848,0.01395c-0.08429,0.00697 -0.1075,0.03388 -0.10063,0.11856l0.47067,5.76478c0.00687,0.08469 0.03427,0.1076 0.11856,0.10063l0.16858,-0.01395c0.07582,-0.00598 0.09904,-0.03288 0.09216,-0.11757l-0.32072,-3.92755c-0.04334,-0.53105 -0.13799,-1.06608 -0.1641,-1.3869l0.01684,-0.001c0.19698,0.23015 0.4617,0.66655 0.77216,1.04017l3.34021,4.0202c0.03856,0.05579 0.06456,0.06277 0.12355,0.05779l0.17695,-0.01494c0.07592,-0.00598 0.09914,-0.03288 0.09226,-0.11757l-0.47077,-5.76478c-0.00687,-0.08469 -0.03417,-0.1076 -0.11009,-0.10163zM265.74242,336.02495l1.78603,6.03678c0.01973,0.06177 -0.0011,0.10262 -0.09366,0.09366l-0.15154,-0.01395c-0.12634,-0.01196 -0.16689,-0.03288 -0.17655,-0.11059l-0.57469,-1.93089l-2.79521,-0.26204l-0.91553,1.79041c-0.03238,0.07373 -0.07602,0.08668 -0.20236,0.07472l-0.14307,-0.01295c-0.08419,-0.00797 -0.09714,-0.05181 -0.06636,-0.1086l2.87831,-5.5984c0.04075,-0.07273 0.07682,-0.09465 0.15254,-0.08768l0.16848,0.01594c0.07572,0.00697 0.11548,0.03587 0.13361,0.11358zM269.20667,338.22087l-0.07074,2.07038c-0.04414,1.29324 0.73161,2.11522 2.2021,2.16503c1.34375,0.04583 1.97105,-0.48223 2.29127,-1.43671c0.028,-0.07472 0.01225,-0.1086 -0.06297,-0.13749l-0.15852,-0.06377c-0.07522,-0.0279 -0.1096,-0.01295 -0.14596,0.06277c-0.28216,0.82795 -0.77893,1.2504 -1.91137,1.21154c-1.22549,-0.04185 -1.86215,-0.72334 -1.82608,-1.77945l0.07134,-2.08732c0.03637,-1.06508 0.69215,-1.6858 1.94295,-1.64295c1.09866,0.03686 1.58377,0.45134 1.80874,1.29723c0.02272,0.07672 0.05619,0.08568 0.14128,0.07174l0.15393,-0.04483c0.07722,-0.03188 0.10342,-0.05579 0.0809,-0.14148c-0.25436,-0.97342 -0.86253,-1.50147 -2.1725,-1.54631c-1.49589,-0.05081 -2.30053,0.71636 -2.34437,2.00163zM266.4534,339.7612l-0.91493,-3.10059c-0.04314,-0.17436 -0.04583,-0.32779 -0.05022,-0.37064l-0.02531,-0.00199c-0.00399,0.04185 -0.0266,0.19329 -0.10133,0.35569l-1.47607,2.87641zM275.62983,336.41751l3.44921,-0.0817c0.08449,-0.00299 0.11049,0.02192 0.11249,0.10661l0.00359,0.15244c0.00189,0.07572 -0.02292,0.10163 -0.1074,0.10362l-3.17023,0.07572l0.05749,2.4181l2.80667,-0.06675c0.07612,-0.00199 0.10212,0.02292 0.10392,0.09864l0.00359,0.15244c0.00199,0.08469 -0.02272,0.11059 -0.09884,0.11259l-2.80667,0.06675l0.05928,2.49382l3.2886,-0.07871c0.07612,-0.00199 0.11049,0.02292 0.11229,0.09864l0.00369,0.15244c0.00199,0.08469 -0.03128,0.11059 -0.10731,0.11259l-3.56757,0.08469c-0.08459,0.00199 -0.11049,-0.02292 -0.11249,-0.10661l-0.13759,-5.78272c-0.00199,-0.08469 0.02272,-0.11059 0.10731,-0.11259z" data-paper-data="{&quot;isBaseLogoContainer&quot;:true}"></path></g></g></g></svg>